<?xml version="1.0" standalone="no"?>
<!DOCTYPE svg PUBLIC "-//W3C//DTD SVG 20010904//EN"
 "http://www.w3.org/TR/2001/REC-SVG-20010904/DTD/svg10.dtd">
<svg version="1.0" xmlns="http://www.w3.org/2000/svg"
 width="196.000000pt" height="209.000000pt" viewBox="0 0 196.000000 209.000000"
 preserveAspectRatio="xMidYMid meet">

<g transform="translate(0.000000,209.000000) scale(0.100000,-0.100000)"
fill="#000000" stroke="none">
<path d="M947 1982 c-22 -24 -21 -56 0 -93 15 -25 16 -35 5 -75 -15 -57 -10
-66 12 -20 21 44 20 94 -1 118 -14 16 -15 24 -5 50 14 38 11 44 -11 20z"/>
<path d="M880 1959 c-12 -28 -11 -36 11 -76 20 -36 25 -40 27 -23 2 12 -3 32
-12 45 -10 16 -14 35 -10 54 8 40 0 40 -16 0z"/>
<path d="M1019 1941 c8 -15 9 -27 1 -40 -5 -11 -10 -30 -9 -43 0 -18 5 -14 22
20 22 44 18 70 -12 80 -10 3 -10 0 -2 -17z"/>
<path d="M798 1528 c5 -156 7 -158 163 -158 160 0 159 -1 162 153 l2 117 -165
0 -165 0 3 -112z"/>
<path d="M1258 1588 c-21 -6 -38 -14 -38 -20 0 -5 8 -7 18 -4 9 3 35 8 57 12
22 3 47 10 55 15 21 12 -45 10 -92 -3z"/>
<path d="M720 1210 c0 -5 5 -10 10 -10 6 0 10 -87 10 -240 0 -153 -4 -240 -10
-240 -24 0 -7 -18 22 -24 35 -7 63 9 35 20 -15 5 -17 29 -17 212 0 113 2 203
6 200 3 -3 17 -57 31 -119 27 -123 40 -156 54 -142 4 4 20 58 35 118 14 61 30
119 34 130 5 11 9 -69 9 -186 1 -184 -1 -208 -16 -213 -28 -11 0 -27 35 -20
29 6 46 24 22 24 -6 0 -10 87 -10 240 0 153 4 240 10 240 6 0 10 5 10 10 0 6
-13 10 -29 10 -34 0 -29 10 -70 -154 -17 -65 -32 -121 -35 -123 -5 -5 -15 29
-37 122 -33 143 -38 155 -70 155 -16 0 -29 -4 -29 -10z"/>
<path d="M1050 1210 c0 -5 4 -10 10 -10 11 0 21 -36 55 -190 30 -136 35 -290
10 -290 -29 0 -15 -18 18 -23 39 -6 72 8 45 18 -15 6 -18 21 -18 98 0 79 11
150 56 365 2 12 11 22 19 22 8 0 15 5 15 10 0 6 -18 10 -40 10 -36 0 -55 -13
-30 -22 8 -3 -23 -224 -34 -235 -8 -9 -40 152 -41 205 l0 52 -32 0 c-18 0 -33
-4 -33 -10z"/>
<path d="M1815 582 c-41 -8 -65 -42 -65 -92 0 -38 12 -70 59 -162 65 -125 81
-189 59 -235 -27 -56 -98 -31 -98 35 0 30 -24 24 -28 -6 -2 -14 8 -33 28 -53
26 -26 36 -30 63 -25 54 11 72 38 71 105 -1 51 -8 72 -61 172 -33 63 -63 126
-66 140 -9 34 10 87 35 100 27 15 68 -13 68 -46 0 -14 4 -25 9 -25 17 0 21 17
10 48 -11 32 -48 52 -84 44z"/>
<path d="M70 571 c0 -5 7 -11 15 -15 23 -8 23 -476 0 -476 -29 0 -15 -19 19
-26 41 -7 67 4 42 18 -13 7 -16 27 -16 105 0 53 3 94 6 90 9 -9 74 -170 74
-184 0 -6 -6 -13 -12 -16 -22 -8 20 -20 47 -13 26 7 35 26 13 26 -7 0 -30 42
-51 92 l-37 92 30 24 c19 15 35 41 45 74 30 102 14 181 -41 204 -37 15 -134
19 -134 5z m117 -17 c33 -9 46 -54 41 -135 -6 -81 -29 -122 -71 -127 l-27 -3
0 135 c0 147 -1 145 57 130z"/>
<path d="M330 571 c0 -5 5 -13 10 -16 6 -4 10 -94 10 -237 0 -208 -2 -232 -17
-243 -16 -12 -14 -14 17 -20 19 -3 60 -5 90 -3 52 3 55 5 58 30 4 33 -17 38
-25 7 -5 -18 -11 -20 -42 -14 -20 4 -37 8 -37 8 -1 1 -3 49 -5 107 l-4 105 43
3 c53 4 46 22 -9 22 l-40 0 3 118 3 117 48 3 c42 3 49 0 54 -18 7 -28 28 -20
28 11 0 23 -2 24 -92 27 -56 2 -93 -1 -93 -7z"/>
<path d="M607 554 c-35 -34 -40 -80 -35 -272 5 -169 13 -202 52 -228 43 -27
116 8 116 56 0 31 -23 23 -40 -13 -20 -43 -53 -47 -77 -11 -26 41 -33 385 -9
433 29 56 96 49 96 -11 0 -10 7 -18 16 -18 13 0 15 6 10 28 -15 62 -84 81
-129 36z"/>
<path d="M796 571 c-3 -5 1 -11 9 -15 23 -8 23 -476 0 -476 -23 0 -18 -19 8
-25 12 -3 52 -5 87 -3 63 3 65 4 68 30 4 34 -23 39 -31 7 -5 -17 -11 -20 -29
-15 -13 3 -31 6 -40 6 -16 0 -18 12 -18 110 l0 110 41 0 c24 0 38 4 34 10 -3
6 -22 10 -41 10 l-34 0 0 120 0 120 49 0 c40 0 50 -3 54 -20 8 -31 27 -24 27
10 l0 30 -89 0 c-50 0 -92 -4 -95 -9z"/>
<path d="M1030 570 c0 -5 7 -10 15 -10 13 0 15 -33 15 -236 0 -209 -2 -238
-17 -249 -14 -11 -11 -13 21 -19 42 -8 68 2 42 16 -14 8 -16 37 -16 244 0 199
2 235 15 240 8 4 12 10 9 15 -7 12 -84 11 -84 -1z"/>
<path d="M1170 555 c0 -27 15 -34 24 -10 3 9 19 15 41 15 l35 0 1 -82 c7 -367
7 -390 -7 -395 -23 -9 -16 -21 16 -28 35 -8 60 3 39 16 -19 12 -16 468 3 481
23 14 68 9 68 -7 0 -18 16 -20 26 -3 16 25 -29 38 -138 38 l-108 0 0 -25z"/>
<path d="M1570 573 c0 -14 -39 -265 -59 -378 -10 -60 -24 -111 -30 -113 -21
-7 -11 -20 20 -27 18 -4 35 -3 42 4 8 8 7 11 -2 11 -10 0 -12 15 -6 67 4 36 9
72 12 80 5 14 69 18 76 6 3 -5 8 -41 12 -81 6 -65 5 -72 -11 -72 -13 0 -15 -3
-7 -11 7 -7 24 -8 42 -4 30 6 41 20 22 27 -5 2 -17 53 -26 113 -9 61 -24 167
-34 237 -10 69 -22 131 -25 137 -8 12 -26 15 -26 4z m45 -290 c6 -32 5 -33
-31 -33 -34 0 -36 1 -31 28 4 15 12 68 19 117 l12 90 13 -85 c6 -47 14 -100
18 -117z"/>
</g>
</svg>
